# xmcd CD database file
# Copyright (C) 1995-1998 Ti Kan
#
# Track frame offsets:
#	150
#	12317
#	24755
#	38240
#	50767
#	63137
#	75880
#	87980
#	101590
#	114855
#	129227
#	143137
#	156250
#	167842
#	179040
#	192770
#	207220
#	220067
#	233892
#	245862
#
# Disc length: 3455 seconds
#
# Revision: 1
# Processed by: cddbd v1.4PL0 Copyright (c) Steve Scherf et al.
# Submitted via: CDex 1.30Release
#
DISCID=080d7d14
DTITLE=Sonny Boy Williamson - Bring Another Half Pint - Disc 2
DYEAR=1900
DGENRE=Blues
TTITLE0=She Don't Love Me That Way
TTITLE1=My Black Name Blues
TTITLE2=I Have Got To Go
TTITLE3=Blues That Made Me Drunk
TTITLE4=Check Up On My Baby Blues
TTITLE5=Sonny Boy's Jump
TTITLE6=Elevator Woman
TTITLE7=Early In The Morning
TTITLE8=Stop Breaking Down
TTITLE9=You're An Old Lady
TTITLE10=Sonny Boy's Cold Chills
TTITLE11=Hoodoo Hoodoo
TTITLE12=Mellow Chick Swng
TTITLE13=Polly Put The Kettle On
TTITLE14=Wonderful Time
TTITLE15=Willow Tree Girl
TTITLE16=No Friend Blues
TTITLE17=Bring Another Half Pint
TTITLE18=Rub A Dub
TTITLE19=Better Cut That Out
EXTD=ID3G:   0
EXTT0=
EXTT1=
EXTT2=
EXTT3=
EXTT4=
EXTT5=
EXTT6=
EXTT7=
EXTT8=
EXTT9=
EXTT10=
EXTT11=
EXTT12=
EXTT13=
EXTT14=
EXTT15=
EXTT16=
EXTT17=
EXTT18=
EXTT19=
PLAYORDER=
